PathFileType	4	(X/Y/Z)	./resultDataOpenSim/trcMotMarkerGrf/sub10/qtm-13-07.trc
DataRate	CameraRate	NumFrames	NumMarkers	Units	OrigDataRate	OrigDataStartFrame	OrigNumFrames
250.000000	250.000000	9	24	m	250.000000	248	494
Frame#	Time	L.Toe.Tip			R.Toe.Tip			L.Ankle.Lat			R.Ankle.Lat			L.Ankle.Med			R.Ankle.Med			L.Heel			R.Heel			L.Knee.Lat			R.Knee.Lat			L.Knee.Med			R.Knee.Med			L.Thigh.Upper			R.Thigh.Upper			L.ASIS			R.ASIS			V.Sacral			L.Acromium			R.Acromium			C7			L.Elbow			R.Elbow			L.Wrist.Lat			R.Wrist.Lat
		X1	Y1	Z1	X2	Y2	Z2	X3	Y3	Z3	X4	Y4	Z4	X5	Y5	Z5	X6	Y6	Z6	X7	Y7	Z7	X8	Y8	Z8	X9	Y9	Z9	X10	Y10	Z10	X11	Y11	Z11	X12	Y12	Z12	X13	Y13	Z13	X14	Y14	Z14	X15	Y15	Z15	X16	Y16	Z16	X17	Y17	Z17	X18	Y18	Z18	X19	Y19	Z19	X20	Y20	Z20	X21	Y21	Z21	X22	Y22	Z22	X23	Y23	Z23	X24	Y24	Z24

248	0.988	0.021466254	-0.0082984484	-0.02869652	0.20195805	0.099838344	0.14699911	-0.10240257	0.034653435	-0.053127354	0.082529874	0.17599032	0.14420062	-0.085206004	0.053964286	0.033061059	0.12871362	0.17317485	0.064777402	-0.17520412	0.026155778	-0.010065334	0.033369216	0.16318707	0.089737371	0.13577893	0.33319397	-0.089809313	0.31973285	0.46833766	0.15724964	0.14405542	0.3169951	0.030271112	0.35163402	0.47039172	0.025060284	0.057494435	0.70670828	-0.18181968	0.034447474	0.72215575	0.19465612	0.09990457	0.81580178	-0.11638645	0.096159433	0.81487744	0.12596477	-0.10403474	0.83099279	-0.0001557137	0.094103756	1.2785688	-0.15907572	0.028451719	1.2894073	0.16248673	-0.025465196	1.313919	-0.022072935	0.061434763	0.93563785	-0.23437383	-0.10435727	0.97323123	0.22690751	0.24209888	0.78504084	-0.30747573	-0.048958734	0.77966112	0.36418996
249	0.992	0.021538425	-0.0083252914	-0.028642508	0.22217565	0.098721058	0.1465845	-0.10200124	0.035515611	-0.052986286	0.10014087	0.17093018	0.14393329	-0.084213268	0.054844071	0.033122563	0.14611596	0.16962173	0.064582686	-0.17485744	0.027568076	-0.0099103182	0.051609248	0.15638226	0.089580629	0.13808343	0.3323259	-0.089890495	0.32899374	0.47142994	0.15611587	0.14666102	0.31605445	0.030199871	0.35938152	0.47447925	0.024061401	0.0614909	0.70662878	-0.1818373	0.041045944	0.72285948	0.19532264	0.1046984	0.8158606	-0.11688778	0.10205427	0.81504804	0.1258592	-0.098229387	0.8313723	0.0018594776	0.099979392	1.2788733	-0.1590638	0.035475262	1.2893862	0.16206533	-0.019652283	1.3142532	-0.022082018	0.069098516	0.93552786	-0.23460649	-0.10002956	0.97458022	0.22651438	0.25252164	0.7877296	-0.30678605	-0.048643878	0.780286	0.3640501
250	0.996	0.021608312	-0.0083336808	-0.028584727	0.2423335	0.097711018	0.1461082	-0.10158246	0.036353354	-0.05280323	0.11783043	0.16589061	0.14359341	-0.083134291	0.055669702	0.033135522	0.16363169	0.16610737	0.064334826	-0.17445401	0.028877007	-0.0097239978	0.069779748	0.14985131	0.089477279	0.1402949	0.33144493	-0.089997635	0.33754305	0.47425178	0.15511843	0.1484284	0.31522142	0.030547446	0.36699189	0.47834847	0.023064497	0.06554534	0.70654621	-0.18179358	0.047726431	0.72369846	0.19601975	0.1095041	0.81595731	-0.1173959	0.108092	0.81528524	0.1257698	-0.092488753	0.83182068	0.0036653103	0.1058654	1.2792592	-0.1590391	0.042152454	1.2895238	0.16199507	-0.013699063	1.3146377	-0.021915843	0.076707795	0.93549963	-0.23476374	-0.095787693	0.9759964	0.22600117	0.26282982	0.7905246	-0.30599942	-0.048132127	0.78101633	0.36381462
251	1	0.021700046	-0.0083092519	-0.028565065	0.26238436	0.096801355	0.14557752	-0.10113296	0.03716496	-0.052600212	0.13558326	0.16084427	0.14330473	-0.082145346	0.056415639	0.033125428	0.18125126	0.16264412	0.063959243	-0.17401497	0.03012319	-0.00950269	0.087936239	0.14351181	0.089393326	0.1423786	0.33056124	-0.090156541	0.34552808	0.47684894	0.15435014	0.14945866	0.31453274	0.031202033	0.3744856	0.4819807	0.022072945	0.069742039	0.70648619	-0.18157294	0.054627474	0.72471263	0.19681052	0.11431682	0.81607078	-0.11790835	0.11425113	0.81564939	0.12578691	-0.086969348	0.83232582	0.0050068206	0.1117572	1.2797233	-0.15900385	0.04866821	1.2897732	0.16206524	-0.0076509539	1.3150762	-0.021635699	0.08426698	0.93554993	-0.23477503	-0.091650049	0.97750277	0.22542292	0.2730179	0.79341537	-0.30511808	-0.047430465	0.78184501	0.3634833
252	1.004	0.021790505	-0.008276035	-0.028567866	0.28232906	0.095936915	0.14498528	-0.10065063	0.037952212	-0.052405699	0.15344722	0.155813	0.14304007	-0.081336236	0.057080568	0.033146021	0.1989455	0.1592388	0.063432814	-0.17357395	0.031341221	-0.0092119225	0.10640107	0.13722242	0.089070237	0.14433677	0.32968391	-0.090370828	0.35303764	0.47919629	0.15374915	0.15048708	0.31388588	0.031778671	0.38178585	0.48535619	0.021159765	0.074093392	0.70647164	-0.1811302	0.06167501	0.72586822	0.19767638	0.11914106	0.81619395	-0.11841316	0.12037981	0.81615646	0.12596158	-0.081603064	0.8328784	0.0059762642	0.11764239	1.2802642	-0.158966	0.055122007	1.2900944	0.16215218	-0.0015738369	1.3155669	-0.021311573	0.091780548	0.93567719	-0.2345774	-0.087573238	0.97911202	0.22487687	0.28308759	0.79639114	-0.30413597	-0.046599856	0.78275159	0.36304204
253	1.008	0.021856563	-0.0082529816	-0.028568832	0.30220012	0.095072178	0.14431376	-0.10016198	0.038714126	-0.05223103	0.17145142	0.15084826	0.14269075	-0.080679235	0.057686691	0.033227572	0.21672376	0.15586519	0.062812428	-0.17315255	0.032536796	-0.0088608124	0.12535899	0.13092945	0.088309824	0.14621666	0.32882044	-0.090603075	0.36013052	0.48126404	0.15322981	0.15217175	0.31314269	0.031997673	0.38876183	0.48846014	0.020427131	0.078408853	0.70648798	-0.18060791	0.068662432	0.72709534	0.19854258	0.12399305	0.81633293	-0.11889486	0.12643621	0.8167596	0.12626915	-0.07615323	0.83349016	0.0069341033	0.12351988	1.2808819	-0.15892619	0.06155113	1.2904677	0.16222952	0.004495487	1.3161007	-0.020971447	0.099258134	0.93589118	-0.2342293	-0.083478784	0.98081294	0.22441221	0.2930429	0.79944558	-0.30304642	-0.045700685	0.78371921	0.36248151
254	1.012	0.021897539	-0.0082362876	-0.028563238	0.3220201	0.094206112	0.1435455	-0.099708914	0.039444564	-0.052068828	0.1895783	0.14599532	0.14218498	-0.080084517	0.058267661	0.033364977	0.23461977	0.15249844	0.062176712	-0.17275566	0.033692046	-0.0085158301	0.14461209	0.12470266	0.087214406	0.14806239	0.32797704	-0.09080182	0.36685475	0.48304487	0.15274903	0.15433685	0.31231753	0.031972864	0.39537079	0.49128998	0.019908529	0.082439311	0.70650237	-0.18023126	0.075479145	0.72835695	0.19936576	0.12889303	0.81649283	-0.11934106	0.13255913	0.81739993	0.12663315	-0.070521501	0.83418455	0.0080320151	0.12939603	1.2815761	-0.1588812	0.067966053	1.2908927	0.16230912	0.010550297	1.3166661	-0.020617619	0.10671657	0.93622435	-0.23397803	-0.079336183	0.98258821	0.22403724	0.30288583	0.80257463	-0.30185227	-0.044746842	0.78474773	0.36180659
255	1.016	0.021918993	-0.0082142822	-0.028556036	0.34178514	0.093354289	0.14266761	-0.099310125	0.040141735	-0.051911392	0.20781259	0.14126508	0.14152592	-0.079501544	0.058840634	0.033541175	0.25261098	0.14917599	0.061524698	-0.17238061	0.034787196	-0.0082306321	0.16379468	0.11864698	0.086104132	0.14987596	0.32716219	-0.090943608	0.37325734	0.48454698	0.15229838	0.15638827	0.3115421	0.03195816	0.40170636	0.4938518	0.019557621	0.086166623	0.70651322	-0.18004673	0.082152409	0.72965241	0.20015503	0.13385685	0.81667231	-0.11974199	0.13886019	0.81806122	0.12699913	-0.064818922	0.83497449	0.0090937503	0.13526718	1.2823464	-0.15883083	0.074373586	1.2913787	0.16239429	0.01660293	1.3172603	-0.02025959	0.11415392	0.93670642	-0.23405091	-0.075200144	0.98442841	0.22375388	0.3126161	0.80577082	-0.30056439	-0.04371497	0.78584369	0.36103019
256	1.02	0.021926448	-0.0081819395	-0.02855198	0.36147692	0.092514621	0.14166923	-0.098954354	0.040811407	-0.051759831	0.22614768	0.13663071	0.14076532	-0.0789441	0.059397828	0.033728231	0.27061652	0.14597031	0.060802589	-0.17202355	0.035818369	-0.0080024759	0.18272349	0.11281295	0.085224906	0.15162969	0.32638911	-0.091034924	0.37938682	0.48578297	0.15188204	0.15811754	0.310902	0.031989833	0.40789993	0.49614592	0.019316347	0.089790358	0.70655397	-0.17988832	0.088744555	0.73098763	0.20093508	0.13889329	0.81687481	-0.12009012	0.14531654	0.81876385	0.12736419	-0.059134936	0.83584873	0.0099830362	0.14112817	1.283189	-0.15877103	0.080777922	1.2919294	0.16247845	0.022678363	1.3178906	-0.019941816	0.1215226	0.93730779	-0.23428335	-0.071105968	0.986318	0.22348918	0.32223238	0.80902533	-0.29919403	-0.042575434	0.78700744	0.36016305
